<?xml version="1.0" standalone="no"?><!DOCTYPE svg PUBLIC "-//W3C//DTD SVG 1.1//EN" "http://www.w3.org/Graphics/SVG/1.1/DTD/svg11.dtd"><svg t="1710754478627" class="icon" viewBox="0 0 1024 1024" version="1.1" xmlns="http://www.w3.org/2000/svg" p-id="2459" xmlns:xlink="http://www.w3.org/1999/xlink" width="200" height="200"><path d="M848.12288 271.14496h-304.93696c-14.14144 0-25.6 11.45856-25.6 25.6s11.45856 25.6 25.6 25.6h304.93696c7.08096 0 13.29664 8.36096 13.29664 17.89952v351.39072c0 9.53856-6.21568 17.89952-13.29664 17.89952h-304.93696c-14.14144 0-25.6 11.45856-25.6 25.6s11.45856 25.6 25.6 25.6h304.93696c35.62496 0 64.49664-30.92992 64.49664-69.09952V340.24448c0-38.15936-28.87168-69.09952-64.49664-69.09952zM180.99712 322.34496h90.73664c14.14144 0 25.6-11.45856 25.6-25.6s-11.45856-25.6-25.6-25.6H180.99712c-35.61472 0-64.49664 30.94016-64.49664 69.09952v351.39072c0 38.1696 28.88192 69.09952 64.49664 69.09952h90.73664c14.14144 0 25.6-11.45856 25.6-25.6s-11.45856-25.6-25.6-25.6H180.99712c-6.29248 0-13.29664-7.35232-13.29664-17.89952V340.24448c0-10.5472 7.00416-17.89952 13.29664-17.89952z" p-id="2460"></path><path d="M409.6 151.87968v710.8864M409.6 888.36608a25.6 25.6 0 0 1-25.6-25.6V151.87968a25.6 25.6 0 0 1 51.2 0v710.8864a25.6 25.6 0 0 1-25.6 25.6z" p-id="2461"></path><path d="M517.59104 166.84544h-220.2624a25.6 25.6 0 0 1 0-51.2h220.2624a25.6 25.6 0 1 1 0 51.2zM517.59104 909.12256h-220.2624a25.6 25.6 0 1 1 0-51.2h220.2624c14.14144 0 25.6 11.45856 25.6 25.6s-11.45856 25.6-25.6 25.6z" p-id="2462"></path></svg>